#!OML:ASF H:\Terrain\Patient Classification 1\Animal1\Tuesday\Animal1.ASF
:FULLY-SPECIFIED
:DEGREES
920
root 15.3819 15.6544 -13.4187 12.1823 24.5029 -2.24672
lowerback 3.93947 0.458295 0.687295
upperback -7.92134 0.971069 2.49489
thorax -10.6894 0.565577 2.15792
lowerneck -6.52899 11.8835 3.76622
upperneck 2.78262 15.5976 -1.47304
head 2.41888 7.76901 -0.401222
rclavicle 2.44257e-014 -2.78299e-014
rhumerus -43.7762 62.6744 -38.0735
rradius 137.086
rwrist -28.505
rhand -22.6705 45.6857
rfingers 7.12502
rthumb 3.76128 15.7392
lclavicle 2.44257e-014 -2.78299e-014
lhumerus -33.3298 -46.2136 32.1333
lradius 139.374
lwrist 16.6732
lhand 3.23438 29.2501
lfingers 7.12502
lthumb 28.6845 57.0677
rfemur -36.8346 13.1321 8.15412
rtibia 42.8895
rfoot -26.5088 -23.4838
rtoes 35.8813
lfemur -38.8056 -12.4528 -9.89281
ltibia 45.8843
lfoot -21.1001 10.898
ltoes -24.0967
921
root 15.4132 15.6461 -13.4446 12.2709 24.7352 -2.15162
lowerback 3.98595 0.455548 0.812868
upperback -8.05078 0.970024 2.3312
thorax -10.8574 0.547794 1.91291
lowerneck -5.73243 11.8998 3.39899
upperneck 2.39153 15.6524 -0.955657
head 2.06633 7.81184 -0.261919
rclavicle -1.30701e-014 2.78299e-015
rhumerus -45.2974 61.1527 -39.6418
rradius 137.514
rwrist -28.8861
rhand -22.1568 46.303
rfingers 7.12502
rthumb 4.25736 16.3658
lclavicle -1.30701e-014 2.78299e-015
lhumerus -34.5648 -44.5038 33.4833
lradius 139.786
lwrist 15.5583
lhand 3.83268 28.258
lfingers 7.12502
lthumb 29.2559 55.9774
rfemur -36.8919 13.0268 7.89271
rtibia 43.0112
rfoot -26.2372 -24.6195
rtoes 33.2387
lfemur -38.9975 -13.1813 -10.0024
ltibia 45.9145
lfoot -20.6417 11.7496
ltoes -24.4546
922
root 15.4467 15.6509 -13.4664 12.5933 24.9178 -1.61743
lowerback 3.92332 0.361819 0.466465
upperback -8.15996 0.797558 2.17341
thorax -10.9388 0.485863 1.96176
lowerneck -4.87954 12.0529 2.77744
upperneck 1.68874 15.906 -0.426556
head 1.58819 7.94829 -0.0972945
rclavicle 6.54002e-014 -1.43125e-014
rhumerus -45.9949 59.4699 -40.4467
rradius 138.02
rwrist -29.5034
rhand -21.9574 46.4012
rfingers 7.12502
rthumb 4.44992 16.4679
lclavicle 6.54002e-014 -1.43125e-014
lhumerus -35.7414 -42.3866 34.7888
lradius 139.941
lwrist 14.3163
lhand 4.54306 26.7033
lfingers 7.12502
lthumb 29.934 54.3024
rfemur -36.9601 12.6535 7.25008
rtibia 43.1527
rfoot -26.6893 -23.6491
rtoes 34.932
lfemur -39.1613 -13.9835 -10.531
ltibia 45.9155
lfoot -20.5569 12.1262
ltoes -22.3538
923
root 15.4766 15.6505 -13.4909 13.0287 25.071 -1.12789
lowerback 3.80355 0.378461 0.266955
upperback -8.44322 0.776108 1.82951
thorax -11.1823 0.477842 1.70901
lowerneck -2.93955 12.0111 2.57021
upperneck 0.0226819 15.9187 -0.145451
head 0.688507 7.95589 -0.188586
rclavicle 4.16951e-014 1.43125e-014
rhumerus -47.8334 57.4301 -42.3122
rradius 138.654
rwrist -30.1493
rhand -21.4681 45.6968
rfingers 7.12502
rthumb 4.92237 15.774
lclavicle 4.16951e-014 1.43125e-014
lhumerus -36.5279 -40.5844 35.8172
lradius 140.055
lwrist 13.2891
lhand 5.03623 25.3944
lfingers 7.12502
lthumb 30.4045 52.9077
rfemur -37.2334 12.3341 6.59915
rtibia 43.3045
rfoot -27.5497 -22.3662
rtoes 37.6976
lfemur -39.5086 -14.7916 -10.923
ltibia 45.901
lfoot -20.717 12.27
ltoes -18.3042
924
root 15.5035 15.6411 -13.5185 13.4441 25.2099 -0.845857
lowerback 3.64796 0.381543 0.267117
upperback -8.48574 0.755947 1.58453
thorax -11.1298 0.455048 1.44837
lowerneck -2.00308 11.9621 1.76347
upperneck -1.76846 15.9188 0.476098
head -0.128804 7.94789 -0.0426729
rclavicle 4.98577e-014 -1.03368e-014
rhumerus -48.5264 55.125 -43.2527
rradius 139.29
rwrist -30.7726
rhand -21.6788 45.1554
rfingers 7.12502
rthumb 4.71893 15.2279
lclavicle 4.98577e-014 -1.03368e-014
lhumerus -36.9704 -38.2222 36.6068
lradius 140.222
lwrist 12.5232
lhand 4.95773 25.2546
lfingers 7.12502
lthumb 30.3297 52.7817
rfemur -37.6239 12.1725 6.10419
rtibia 43.4498
rfoot -27.9894 -22.0079
rtoes 38.8656
lfemur -39.9342 -15.584 -11.0734
ltibia 45.8739
lfoot -20.567 13.0831
ltoes -16.1617
925
root 15.5306 15.6369 -13.5426 13.8856 25.2118 -0.441358
lowerback 3.44056 0.418411 0.0823747
upperback -8.48497 0.761116 1.31709
thorax -10.9997 0.458796 1.26427
lowerneck -1.14127 11.9404 1.01428
upperneck -3.6009 15.965 1.07118
head -0.935704 7.95517 0.0882268
rclavicle -2.07481e-014 -9.93923e-015
rhumerus -49.3749 52.9184 -44.0587
rradius 139.997
rwrist -31.5711
rhand -23.0858 45.1176
rfingers 7.12502
rthumb 3.36022 15.1643
lclavicle -2.07481e-014 -9.93923e-015
lhumerus -36.7144 -35.7425 36.8555
lradius 140.228
lwrist 12.5915
lhand 5.02286 25.9031
lfingers 7.12502
lthumb 30.3918 53.4187
rfemur -37.9821 12.0003 5.51753
rtibia 43.5516
rfoot -27.522 -22.762
rtoes 37.3113
lfemur -40.2464 -16.246 -11.4161
ltibia 45.853
lfoot -20.1057 14.2821
ltoes -15.2243
926
root 15.5554 15.6366 -13.5621 14.2002 25.154 -0.142858
lowerback 3.28576 0.544785 -0.064184
upperback -8.50969 0.888905 0.997045
thorax -10.9321 0.516704 0.987217
lowerneck 0.236898 11.8393 0.671304
upperneck -5.8282 15.9286 1.37861
head -1.93326 7.90343 0.0357682
rclavicle -1.61885e-014 -1.07344e-014
rhumerus -50.8871 50.4889 -45.1202
rradius 140.674
rwrist -32.2922
rhand -23.9504 45.877
rfingers 7.12502
rthumb 2.52528 15.9122
lclavicle -1.61885e-014 -1.07344e-014
lhumerus -36.7104 -33.4371 36.9227
lradius 140.727
lwrist 13.2473
lhand 5.38361 26.2
lfingers 7.12502
lthumb 30.7358 53.6515
rfemur -38.2183 11.9586 5.04313
rtibia 43.5767
rfoot -27.1241 -23.3816
rtoes 35.7616
lfemur -40.4601 -16.6697 -11.7078
ltibia 45.8523
lfoot -19.9234 15.0352
ltoes -12.5647
927
root 15.5777 15.6344 -13.5806 14.3147 25.2725 -0.0914581
lowerback 3.24838 0.625247 0.0770781
upperback -8.50886 0.984215 0.716521
thorax -10.9013 0.536233 0.595533
lowerneck 1.95333 11.6919 0.335984
upperneck -8.47613 15.8647 1.59975
head -3.1784 7.81893 -0.0834742
rclavicle 1.64122e-014 2.18663e-014
rhumerus -51.9965 47.8513 -45.8296
rradius 141.327
rwrist -32.8495
rhand -23.3099 46.5594
rfingers 7.12502
rthumb 3.1438 16.6028
lclavicle 1.64122e-014 2.18663e-014
lhumerus -37.418 -31.0458 36.9385
lradius 141.848
lwrist 14.2782
lhand 5.24231 26.1824
lfingers 7.12502
lthumb 30.6011 53.6591
rfemur -38.3084 11.9825 4.82902
rtibia 43.568
rfoot -27.1925 -23.4474
rtoes 36.5332
lfemur -40.6347 -17.0271 -11.7492
ltibia 45.8672
lfoot -20.2894 15.0103
ltoes -6.926
928
root 15.6013 15.6324 -13.5993 14.3573 25.4317 0.00903941
lowerback 3.23225 0.581952 0.17527
upperback -8.39517 0.913772 0.530659
thorax -10.7562 0.483018 0.351107
lowerneck 3.51015 11.6629 -0.331269
upperneck -11.1222 15.9672 1.90189
head -4.51058 7.81362 -0.126691
rclavicle 6.49094e-014 1.70955e-014
rhumerus -52.3088 45.4606 -45.9769
rradius 141.901
rwrist -33.2656
rhand -22.6998 46.4456
rfingers 7.12502
rthumb 3.73299 16.4986
lclavicle 6.49094e-014 1.70955e-014
lhumerus -38.2487 -28.339 36.8541
lradius 142.895
lwrist 15.5277
lhand 4.60262 26.2581
lfingers 7.12502
lthumb 29.9909 53.8471
rfemur -38.308 11.9442 4.61108
rtibia 43.5655
rfoot -27.1111 -23.6312
rtoes 37.3451
lfemur -40.7308 -17.3889 -11.8908
ltibia 45.9424
lfoot -20.6217 14.8313
ltoes -2.80862
929
root 15.6222 15.6252 -13.6174 14.5727 25.443 0.288928
lowerback 3.113 0.572832 0.00106398
upperback -8.26587 0.865351 0.337539
thorax -10.5365 0.46343 0.250079
lowerneck 4.81333 11.6569 -1.13317
upperneck -14.156 16.1208 2.29953
head -5.34714 7.82119 -0.112073
rclavicle 7.2867e-015 5.36719e-015
rhumerus -52.7533 43.3231 -46.2956
rradius 142.246
rwrist -33.0981
rhand -22.9562 46.1496
rfingers 7.12502
rthumb 3.48539 16.1983
lclavicle 7.2867e-015 5.36719e-015
lhumerus -38.9077 -25.6514 36.5766
lradius 143.838
lwrist 16.3133
lhand 5.12925 26.3426
lfingers 7.12502
lthumb 30.4932 53.8394
rfemur -38.4693 11.8682 4.18681
rtibia 43.5968
rfoot -26.7315 -24.1234
rtoes 36.3741
lfemur -40.9645 -17.6905 -12.2036
ltibia 46.1053
lfoot -20.5724 15.1141
ltoes -1.88896
930
root 15.6389 15.6118 -13.6383 14.8341 25.4469 0.42785
lowerback 2.99605 0.611476 -0.05159
upperback -8.19169 0.894753 0.146471
thorax -10.3797 0.472386 0.0739025
lowerneck 6.08993 11.5688 -1.70888
upperneck -16.881 16.1494 2.4276
head -6.48232 7.77429 -0.189426
rclavicle -5.6048e-014 -1.49089e-014
rhumerus -52.9899 41.181 -46.4223
rradius 142.369
rwrist -33.0235
rhand -22.7581 46.3982
rfingers 7.12502
rthumb 3.67669 16.4502
lclavicle -5.6048e-014 -1.49089e-014
lhumerus -39.4152 -23.1305 35.9891
lradius 144.674
lwrist 16.5195
lhand 6.38386 26.4725
lfingers 7.12502
lthumb 31.689 53.7403
rfemur -38.7762 11.8475 3.86023
rtibia 43.661
rfoot -26.3678 -24.563
rtoes 35.1837
lfemur -41.3925 -17.9164 -12.3173
ltibia 46.3526
lfoot -20.5192 15.441
ltoes -1.35767
931
root 15.6552 15.6024 -13.6601 14.908 25.4418 0.328756
lowerback 3.0033 0.650865 0.123947
upperback -8.09339 0.950283 0.0276377
thorax -10.2685 0.478963 -0.156763
lowerneck 7.10556 11.4552 -2.07742
upperneck -19.1342 16.1089 2.38688
head -7.41447 7.70885 -0.301829
rclavicle 2.22375e-014 7.95139e-016
rhumerus -52.8557 39.1105 -46.2264
rradius 142.281
rwrist -33.0958
rhand -21.9362 47.1548
rfingers 7.12502
rthumb 4.4704 17.2219
lclavicle 2.22375e-014 7.95139e-016
lhumerus -40.1417 -20.9383 35.6124
lradius 145.315
lwrist 16.4127
lhand 6.03405 26.352
lfingers 7.12502
lthumb 31.3558 53.685
rfemur -39.0309 11.9782 3.77792
rtibia 43.7319
rfoot -25.3142 -25.4888
rtoes 32.8142
lfemur -41.7237 -18.0577 -12.2291
ltibia 46.6606
lfoot -20.6482 15.5553
ltoes -1.00351
932
root 15.6699 15.5953 -13.6784 14.8459 25.4276 0.140689
lowerback 3.11494 0.700577 0.407193
upperback -8.04408 1.02729 -0.120535
thorax -10.2726 0.485992 -0.483422
lowerneck 7.89922 11.3779 -2.22759
upperneck -20.619 16.1161 2.46316
head -8.06698 7.66244 -0.368548
rclavicle 4.99408e-014 2.14687e-014
rhumerus -53.5553 37.4227 -46.6921
rradius 142.27
rwrist -32.5578
rhand -21.5581 47.6595
rfingers 7.12502
rthumb 4.83552 17.7347
lclavicle 4.99408e-014 2.14687e-014
lhumerus -40.973 -19.2613 35.3741
lradius 145.739
lwrist 16.1374
lhand 4.96887 25.937
lfingers 7.12502
lthumb 30.3403 53.4622
rfemur -39.1878 12.1764 3.80669
rtibia 43.8224
rfoot -24.2456 -26.3114
rtoes 30.2483
lfemur -41.9339 -18.2332 -12.076
ltibia 46.9758
lfoot -20.7732 15.7813
ltoes -0.323152
933
root 15.6813 15.5839 -13.6958 14.6679 25.4527 -0.0291199
lowerback 3.39547 0.746213 0.686781
upperback -8.02985 1.09869 -0.290457
thorax -10.417 0.488401 -0.834397
lowerneck 8.44092 11.3011 -2.3125
upperneck -21.4653 16.1237 2.70761
head -8.47956 7.61457 -0.350341
rclavicle 1.14565e-014 1.71452e-015
rhumerus -54.6034 36.063 -47.4587
rradius 142.297
rwrist -32.2669
rhand -22.032 47.4403
rfingers 7.12502
rthumb 4.37789 17.5056
lclavicle 1.14565e-014 1.71452e-015
lhumerus -41.6547 -17.9158 34.8858
lradius 145.97
lwrist 15.9715
lhand 4.39084 25.7857
lfingers 7.12502
lthumb 29.7888 53.411
rfemur -39.1592 12.4782 3.82525
rtibia 43.9176
rfoot -25.2655 -25.4275
rtoes 33.2443
lfemur -42.0169 -18.4543 -11.9613
ltibia 47.2062
lfoot -20.6898 16.3087
ltoes -0.90915
